<?xml version="1.0" encoding="UTF-8"?>
<svg width="23px" height="13px" viewBox="0 0 23 13" version="1.1" xmlns="http://www.w3.org/2000/svg" xmlns:xlink="http://www.w3.org/1999/xlink">
    <title>ArrowUp</title>
    <g id="7StocksPage" stroke="none" stroke-width="1" fill="none" fill-rule="evenodd">
        <g id="iPhone-11" transform="translate(-93.000000, -146.000000)" fill="#48AF38">
            <g id="StockList" transform="translate(22.000000, 143.000000)">
                <g id="ArrowUp" transform="translate(71.000000, 1.000000)">
                    <path d="M5.78069686,5.05814539 L6.39088024,4.98426669 C6.93916087,4.91788294 7.4374448,5.30853754 7.50382855,5.85681816 C7.51349537,5.9366589 7.51349537,6.01737426 7.50382855,6.09721499 L6.40137842,15.2026365 C6.34604398,15.6596579 5.98584839,16.0198535 5.52882694,16.0751879 L4.91864356,16.1490666 C4.37036294,16.2154504 3.87207901,15.8247958 3.80569526,15.2765152 C3.79602844,15.1966744 3.79602844,15.1159591 3.80569526,15.0361183 L4.90814539,5.93069686 C4.96347983,5.47367542 5.32367542,5.11347983 5.78069686,5.05814539 Z" id="Rectangle" transform="translate(5.654762, 10.566667) rotate(45.000000) translate(-5.654762, -10.566667) "></path>
                    <path d="M16.3383558,3.08302582 L16.588918,3.06760168 C17.0911768,3.03668355 17.5234021,3.41878068 17.5543202,3.9210395 C17.5575781,3.97396295 17.55621,4.02706978 17.5502314,4.07975529 L16.5932614,12.5129758 C16.5346551,13.029439 16.0901587,13.4148949 15.5706001,13.3998015 L15.3837921,13.3943746 C14.8317402,13.3783373 14.3972146,12.91781 14.413252,12.3657581 C14.4141147,12.3360587 14.4163007,12.3064125 14.4198034,12.2769078 L15.4067709,3.96324795 C15.4637541,3.48325334 15.8559039,3.11272467 16.3383558,3.08302582 Z" id="Rectangle-Up" transform="translate(15.981784, 8.213694) rotate(44.000000) translate(-15.981784, -8.213694) "></path>
                    <path d="M10.5500161,5.90937971 L10.9713028,5.9402933 C11.4479151,5.97526662 11.8331707,6.34257932 11.8908183,6.81698329 L12.4764149,11.6360756 C12.5415424,12.1720344 12.1598582,12.6593112 11.6238994,12.7244387 C11.5458988,12.7339171 11.4670399,12.7339568 11.3890298,12.7245571 L10.930743,12.6693366 C10.4731727,12.6142024 10.1125439,12.2534846 10.0575227,11.7959008 L9.48398563,7.02608128 C9.41805223,6.47774632 9.80911596,5.97978342 10.3574509,5.91385002 C10.4213459,5.90616709 10.4858334,5.90467005 10.5500161,5.90937971 Z" id="Rectangle-Mid" transform="translate(10.982916, 9.347110) rotate(136.000000) translate(-10.982916, -9.347110) "></path>
                    <polygon id="Triangle" transform="translate(20.870765, 3.971997) rotate(46.000000) translate(-20.870765, -3.971997) " points="21.3204914 1.96125617 23.2499553 5.40451812 18.4915757 5.9827371"></polygon>
                </g>
            </g>
        </g>
    </g>
</svg>