<?xml version="1.0" encoding="UTF-8"?>
<svg width="22px" height="15px" viewBox="0 0 22 15" version="1.1" xmlns="http://www.w3.org/2000/svg" xmlns:xlink="http://www.w3.org/1999/xlink">
    <title>ArrowDown</title>
    <g id="7StocksPage" stroke="none" stroke-width="1" fill="none" fill-rule="evenodd">
        <g id="iPhone-11" transform="translate(-93.000000, -206.000000)" fill="#B60404">
            <g id="StockList" transform="translate(22.000000, 143.000000)">
                <g id="StockC" transform="translate(0.000000, 63.000000)">
                    <g id="Group" transform="translate(71.000000, -0.000000)">
                        <g id="ArrowDown" transform="translate(12.000000, 8.500000) scale(1, -1) translate(-12.000000, -8.500000) ">
                            <path d="M5.02261037,5.64346985 L5.86779594,5.63993351 C6.42007586,5.63762272 6.86966046,6.08346078 6.87197125,6.63574069 C6.87198292,6.63853006 6.87198292,6.64131946 6.87197125,6.64410882 L6.83033967,16.5940563 C6.82804254,17.1430711 6.38354729,17.5875663 5.83453249,17.5898635 L4.98934692,17.5933998 C4.437067,17.5957106 3.9874824,17.1498726 3.9851716,16.5975926 C3.98515993,16.5948033 3.98515993,16.5920139 3.9851716,16.5892245 L4.02680318,6.63927703 C4.02910032,6.09026223 4.47359557,5.64576698 5.02261037,5.64346985 Z" id="Rectangle" transform="translate(5.428571, 11.616667) rotate(45.000000) translate(-5.428571, -11.616667) "></path>
                            <path d="M15.1782707,3.20450181 L15.5131848,3.22315613 C16.041538,3.25258477 16.4554993,3.68853761 16.4575646,4.21770567 L16.4931847,13.3442776 C16.4953402,13.8965581 16.0493757,14.3460173 15.4970952,14.3481728 C15.4473976,14.3483668 15.3977547,14.3448557 15.3485792,14.3376687 L14.9656377,14.281702 C14.4739173,14.2098374 14.1095734,13.7877924 14.1102518,13.2908487 L14.122659,4.20158918 C14.1234129,3.64930495 14.5717389,3.20220127 15.1240232,3.20295516 C15.1421163,3.20297986 15.1602055,3.2034956 15.1782707,3.20450181 Z" id="Rectangle-Up" transform="translate(15.303394, 8.825700) rotate(44.000000) translate(-15.303394, -8.825700) "></path>
                            <path d="M10.2109326,6.55216057 L10.8450615,6.52441393 C11.3968183,6.50027153 11.8636769,6.92798752 11.8878193,7.47974434 C11.8883955,7.492914 11.8887113,7.50609376 11.8887664,7.51927591 L11.9111318,12.8670859 C11.9134415,13.4193658 11.4676026,13.8689495 10.9153227,13.8712593 C10.912535,13.8712709 10.9097473,13.8712709 10.9069597,13.8712593 L10.2658909,13.868579 C9.71637456,13.8662815 9.27167013,13.4210075 9.270076,12.8714887 L9.25465054,7.5541056 C9.25309446,7.01770035 9.67503789,6.57560892 10.2109326,6.55216057 Z" id="Rectangle-Mid" transform="translate(10.583607, 10.177206) rotate(136.000000) translate(-10.583607, -10.177206) "></path>
                            <polygon id="Triangle" transform="translate(20.276078, 3.681062) rotate(46.000000) translate(-20.276078, -3.681062) " points="20.2927342 1.68375023 22.8364181 5.65695746 17.7157374 5.67837298"></polygon>
                        </g>
                    </g>
                </g>
            </g>
        </g>
    </g>
</svg>